<svg xmlns="http://www.w3.org/2000/svg" width="32" height="32" style=""><rect id="backgroundrect" width="100%" height="100%" x="0" y="0" fill="none" stroke="none"/>

 <g style="">
  <title>background</title>
  <rect fill="none" id="canvas_background" height="34" width="34" y="-1" x="-1"/>
 </g>
 <g style="" class="currentLayer">
  <title>Layer 1</title>
  <path fill="#bc3b69" id="svg_1" d="m28,14l-10,0l0,-10c0,-1.104 -0.896,-2 -2,-2s-2,0.896 -2,2l0,10l-10,0c-1.104,0 -2,0.896 -2,2s0.896,2 2,2l10,0l0,10c0,1.104 0.896,2 2,2s2,-0.896 2,-2l0,-10l10,0c1.104,0 2,-0.896 2,-2s-0.896,-2 -2,-2z" class="" transform="" fill-opacity="1"/>
 </g>
</svg>